<svg width="1200" height="580" viewBox="0 0 1200 580" fill="none" xmlns="http://www.w3.org/2000/svg" role="img" aria-labelledby="title desc">
  <title id="title">Arthur Medeiros Matrix Hero</title>
  <desc id="desc">Hero visual em estilo terminal cyber premium para o perfil GitHub de Arthur Medeiros.</desc>

  <defs>
    <radialGradient id="mainGlow" cx="0" cy="0" r="1" gradientUnits="userSpaceOnUse" gradientTransform="translate(940 210) rotate(90) scale(260 360)">
      <stop stop-color="#39FF14" stop-opacity="0.32"/>
      <stop offset="0.45" stop-color="#00FF88" stop-opacity="0.12"/>
      <stop offset="1" stop-color="#030B07" stop-opacity="0"/>
    </radialGradient>

    <linearGradient id="heroStroke" x1="0" y1="0" x2="1200" y2="580" gradientUnits="userSpaceOnUse">
      <stop stop-color="#39FF14" stop-opacity="0.42"/>
      <stop offset="0.45" stop-color="#00FF88" stop-opacity="0.16"/>
      <stop offset="1" stop-color="#39FF14" stop-opacity="0.08"/>
    </linearGradient>

    <linearGradient id="terminalPanel" x1="742" y1="62" x2="1128" y2="358" gradientUnits="userSpaceOnUse">
      <stop stop-color="#0A1510"/>
      <stop offset="1" stop-color="#07110D"/>
    </linearGradient>

    <linearGradient id="cardFill" x1="58" y1="444" x2="1142" y2="542" gradientUnits="userSpaceOnUse">
      <stop stop-color="#0A1510"/>
      <stop offset="1" stop-color="#07110D"/>
    </linearGradient>

    <filter id="softGlow" x="-40%" y="-40%" width="180%" height="180%" color-interpolation-filters="sRGB">
      <feGaussianBlur stdDeviation="10" result="blur"/>
      <feColorMatrix in="blur" type="matrix" values="0 0 0 0 0.223529 0 0 0 0 1 0 0 0 0 0.0784314 0 0 0 0.42 0"/>
      <feBlend in="SourceGraphic" mode="screen"/>
    </filter>

    <filter id="lineGlow" x="-20%" y="-20%" width="140%" height="140%" color-interpolation-filters="sRGB">
      <feGaussianBlur stdDeviation="2.4" result="blur"/>
      <feBlend in="SourceGraphic" in2="blur" mode="screen"/>
    </filter>

    <pattern id="grid" width="48" height="48" patternUnits="userSpaceOnUse">
      <path d="M 48 0 H 0 V 48" stroke="#39FF14" stroke-opacity="0.045" stroke-width="1"/>
    </pattern>

    <pattern id="matrixRain" width="88" height="120" patternUnits="userSpaceOnUse">
      <text x="2" y="18" fill="#39FF14" fill-opacity="0.16" font-family="JetBrains Mono, Consolas, monospace" font-size="13">01</text>
      <text x="36" y="42" fill="#00FF88" fill-opacity="0.10" font-family="JetBrains Mono, Consolas, monospace" font-size="12">API</text>
      <text x="10" y="70" fill="#39FF14" fill-opacity="0.12" font-family="JetBrains Mono, Consolas, monospace" font-size="13">QA</text>
      <text x="48" y="96" fill="#00FF88" fill-opacity="0.09" font-family="JetBrains Mono, Consolas, monospace" font-size="12">AI</text>
    </pattern>

    <clipPath id="panelClip">
      <rect x="742" y="62" width="386" height="300" rx="30"/>
    </clipPath>
  </defs>

  <rect width="1200" height="580" fill="#030B07"/>
  <rect width="1200" height="580" fill="url(#grid)"/>
  <rect width="1200" height="580" fill="url(#mainGlow)"/>

  <path d="M72 26H1128C1153.41 26 1174 46.5889 1174 72V508C1174 533.411 1153.41 554 1128 554H72C46.5889 554 26 533.411 26 508V72C26 46.5889 46.5889 26 72 26Z" fill="#07110D" fill-opacity="0.72" stroke="url(#heroStroke)" stroke-width="1.4"/>
  <path d="M84 50H1116C1135.88 50 1152 66.1178 1152 86V494C1152 513.882 1135.88 530 1116 530H84C64.1178 530 48 513.882 48 494V86C48 66.1178 64.1178 50 84 50Z" stroke="#39FF14" stroke-opacity="0.08"/>

  <g opacity="0.5">
    <path d="M76 92H330" stroke="#39FF14" stroke-opacity="0.13"/>
    <path d="M76 388H640" stroke="#39FF14" stroke-opacity="0.11"/>
    <circle cx="84" cy="92" r="3" fill="#39FF14" fill-opacity="0.42"/>
    <circle cx="112" cy="92" r="3" fill="#00FF88" fill-opacity="0.3"/>
  </g>

  <g font-family="JetBrains Mono, Consolas, monospace">
    <text x="76" y="116" fill="#00FF88" font-size="17" letter-spacing="0">// arthur_medeiros.profile</text>
    <text x="74" y="183" fill="#E8FFE8" font-size="58" font-weight="800" letter-spacing="0">Arthur Medeiros<tspan fill="#39FF14">_</tspan></text>
    <text x="78" y="226" fill="#39FF14" font-size="25" font-weight="700" letter-spacing="0">Systems • QA • Automations • AI</text>
    <text x="78" y="262" fill="#8FBF9A" font-size="17" letter-spacing="0">Transformando processos operacionais em soluções</text>
    <text x="78" y="286" fill="#8FBF9A" font-size="17" letter-spacing="0">organizadas, simples e eficientes.</text>

    <g font-size="14" font-weight="700">
      <rect x="78" y="314" width="132" height="34" rx="17" fill="#0A1510" stroke="#39FF14" stroke-opacity="0.22"/>
      <text x="96" y="336" fill="#E8FFE8">São Paulo, BR</text>

      <rect x="224" y="314" width="196" height="34" rx="17" fill="#0A1510" stroke="#39FF14" stroke-opacity="0.22"/>
      <circle cx="244" cy="331" r="4" fill="#39FF14" filter="url(#lineGlow)"/>
      <text x="258" y="336" fill="#E8FFE8">Open to Collaboration</text>

      <rect x="434" y="314" width="184" height="34" rx="17" fill="#0A1510" stroke="#39FF14" stroke-opacity="0.22"/>
      <text x="452" y="336" fill="#E8FFE8">GitHub: arthur-abap</text>
    </g>

    <text x="78" y="382" fill="#E8FFE8" font-size="18" letter-spacing="0">Estudante de ADS com foco em QA, automações, integrações ERP/API</text>
    <text x="78" y="410" fill="#8FBF9A" font-size="18" letter-spacing="0">e desenvolvimento assistido por IA.</text>
  </g>

  <g clip-path="url(#panelClip)">
    <rect x="742" y="62" width="386" height="300" rx="30" fill="url(#terminalPanel)" stroke="#39FF14" stroke-opacity="0.24"/>
    <rect x="742" y="62" width="386" height="300" fill="url(#matrixRain)" opacity="0.9"/>
    <circle cx="936" cy="208" r="122" fill="#39FF14" fill-opacity="0.05"/>
    <circle cx="936" cy="208" r="92" stroke="#39FF14" stroke-opacity="0.34" stroke-width="1.4" filter="url(#softGlow)"/>
    <circle cx="936" cy="208" r="62" stroke="#00FF88" stroke-opacity="0.23" stroke-width="1"/>
    <path d="M936 97V319" stroke="#39FF14" stroke-opacity="0.08"/>
    <path d="M825 208H1047" stroke="#39FF14" stroke-opacity="0.08"/>

    <rect x="842" y="139" width="188" height="138" rx="18" fill="#030B07" fill-opacity="0.82" stroke="#39FF14" stroke-opacity="0.34"/>
    <rect x="842" y="139" width="188" height="34" rx="18" fill="#0A1510"/>
    <circle cx="862" cy="156" r="4" fill="#39FF14" fill-opacity="0.78"/>
    <circle cx="878" cy="156" r="4" fill="#00FF88" fill-opacity="0.5"/>
    <circle cx="894" cy="156" r="4" fill="#4D6B55"/>

    <text x="862" y="199" fill="#39FF14" font-family="JetBrains Mono, Consolas, monospace" font-size="15" font-weight="700">$ build</text>
    <path d="M862 219H956" stroke="#00FF88" stroke-opacity="0.72" stroke-width="4" stroke-linecap="round"/>
    <path d="M862 240H1002" stroke="#39FF14" stroke-opacity="0.34" stroke-width="4" stroke-linecap="round"/>
    <path d="M862 260H932" stroke="#8FBF9A" stroke-opacity="0.46" stroke-width="4" stroke-linecap="round"/>

    <g filter="url(#lineGlow)">
      <path d="M782 118L814 118L814 150" stroke="#39FF14" stroke-opacity="0.58" stroke-width="1.4"/>
      <path d="M1090 302L1058 302L1058 270" stroke="#39FF14" stroke-opacity="0.48" stroke-width="1.4"/>
      <path d="M790 300L826 264" stroke="#00FF88" stroke-opacity="0.2"/>
      <path d="M1082 112L1042 152" stroke="#00FF88" stroke-opacity="0.18"/>
    </g>
  </g>

  <rect x="742" y="62" width="386" height="300" rx="30" stroke="#39FF14" stroke-opacity="0.24"/>

  <g font-family="JetBrains Mono, Consolas, monospace">
    <g>
      <rect x="58" y="444" width="258" height="88" rx="16" fill="url(#cardFill)" stroke="#39FF14" stroke-opacity="0.2"/>
      <text x="82" y="478" fill="#39FF14" font-size="14" font-weight="800">foco</text>
      <text x="82" y="508" fill="#E8FFE8" font-size="16">QA, automações e integrações</text>
    </g>

    <g>
      <rect x="332" y="444" width="258" height="88" rx="16" fill="url(#cardFill)" stroke="#39FF14" stroke-opacity="0.2"/>
      <text x="356" y="478" fill="#39FF14" font-size="14" font-weight="800">stack</text>
      <text x="356" y="508" fill="#E8FFE8" font-size="16">React, Node.js, TypeScript</text>
    </g>

    <g>
      <rect x="606" y="444" width="258" height="88" rx="16" fill="url(#cardFill)" stroke="#39FF14" stroke-opacity="0.2"/>
      <text x="630" y="478" fill="#39FF14" font-size="14" font-weight="800">interesses</text>
      <text x="630" y="508" fill="#E8FFE8" font-size="16">Sistemas, produtividade e IA</text>
    </g>

    <g>
      <rect x="880" y="444" width="258" height="88" rx="16" fill="url(#cardFill)" stroke="#39FF14" stroke-opacity="0.2"/>
      <text x="904" y="478" fill="#39FF14" font-size="14" font-weight="800">objetivo</text>
      <text x="904" y="508" fill="#E8FFE8" font-size="16">Criar soluções úteis e reais</text>
    </g>
  </g>
</svg>
