<svg width="1200" height="1180" viewBox="0 0 1200 1180" fill="none" xmlns="http://www.w3.org/2000/svg" role="img" aria-labelledby="title desc">
  <title id="title">Arthur Medeiros Matrix GitHub Profile</title>
  <desc id="desc">Premium Matrix terminal profile panel for Arthur Medeiros, focused on QA, automations, integrations and AI.</desc>

  <defs>
    <linearGradient id="panelBg" x1="0" y1="0" x2="1200" y2="1180" gradientUnits="userSpaceOnUse">
      <stop offset="0" stop-color="#030B07"/>
      <stop offset="0.48" stop-color="#07110D"/>
      <stop offset="1" stop-color="#030B07"/>
    </linearGradient>
    <radialGradient id="heroGlow" cx="0" cy="0" r="1" gradientUnits="userSpaceOnUse" gradientTransform="translate(340 210) rotate(28) scale(560 300)">
      <stop offset="0" stop-color="#39FF14" stop-opacity="0.18"/>
      <stop offset="0.44" stop-color="#00FF88" stop-opacity="0.08"/>
      <stop offset="1" stop-color="#030B07" stop-opacity="0"/>
    </radialGradient>
    <radialGradient id="avatarGlow" cx="0" cy="0" r="1" gradientUnits="userSpaceOnUse" gradientTransform="translate(970 205) scale(220)">
      <stop offset="0" stop-color="#39FF14" stop-opacity="0.26"/>
      <stop offset="0.56" stop-color="#00FF88" stop-opacity="0.08"/>
      <stop offset="1" stop-color="#030B07" stop-opacity="0"/>
    </radialGradient>
    <linearGradient id="accentLine" x1="60" y1="0" x2="1140" y2="0" gradientUnits="userSpaceOnUse">
      <stop offset="0" stop-color="#39FF14" stop-opacity="0"/>
      <stop offset="0.2" stop-color="#39FF14" stop-opacity="0.26"/>
      <stop offset="0.5" stop-color="#00FF88" stop-opacity="0.76"/>
      <stop offset="0.8" stop-color="#39FF14" stop-opacity="0.26"/>
      <stop offset="1" stop-color="#39FF14" stop-opacity="0"/>
    </linearGradient>
    <filter id="softGlow" x="-30%" y="-30%" width="160%" height="160%">
      <feGaussianBlur stdDeviation="6" result="blur"/>
      <feColorMatrix in="blur" type="matrix" values="0 0 0 0 0.223 0 0 0 0 1 0 0 0 0 0.078 0 0 0 0.55 0" result="greenBlur"/>
      <feMerge>
        <feMergeNode in="greenBlur"/>
        <feMergeNode in="SourceGraphic"/>
      </feMerge>
    </filter>
    <filter id="cardGlow" x="-15%" y="-15%" width="130%" height="130%">
      <feDropShadow dx="0" dy="0" stdDeviation="8" flood-color="#39FF14" flood-opacity="0.10"/>
    </filter>
    <pattern id="grid" width="44" height="44" patternUnits="userSpaceOnUse">
      <path d="M44 0H0V44" stroke="#39FF14" stroke-opacity="0.045" stroke-width="1"/>
    </pattern>
    <clipPath id="panelClip">
      <rect x="20" y="20" width="1160" height="1140" rx="30"/>
    </clipPath>
    <clipPath id="avatarClip">
      <circle cx="970" cy="215" r="116"/>
    </clipPath>
  </defs>

  <rect width="1200" height="1180" fill="#030B07"/>
  <rect x="20" y="20" width="1160" height="1140" rx="30" fill="url(#panelBg)" stroke="#39FF14" stroke-opacity="0.22"/>

  <g clip-path="url(#panelClip)">
    <rect x="20" y="20" width="1160" height="1140" fill="url(#grid)"/>
    <rect x="20" y="20" width="1160" height="1140" fill="url(#heroGlow)">
      <animate attributeName="opacity" values="0.86;1;0.86" dur="8s" repeatCount="indefinite"/>
    </rect>
    <rect x="770" y="50" width="360" height="310" fill="url(#avatarGlow)"/>

    <g opacity="0.16" font-family="JetBrains Mono, Consolas, Monaco, Courier New, monospace" font-size="16" fill="#39FF14">
      <text x="68" y="44">010101010010101<tspan x="68" dy="28">110011001011010</tspan><tspan x="68" dy="28">001011010010111</tspan><tspan x="68" dy="28">101001110010100</tspan><tspan x="68" dy="28">010110100101101</tspan><animate attributeName="opacity" values="0.08;0.22;0.08" dur="5s" repeatCount="indefinite"/></text>
      <text x="515" y="40">RUN SYS QA API AI<tspan x="515" dy="26">TRACE BUILD FIX</tspan><tspan x="515" dy="26">AUTO NODE SQL</tspan><tspan x="515" dy="26">TEST FLOW DATA</tspan><tspan x="515" dy="26">PROMPT CODE OPS</tspan><animate attributeName="opacity" values="0.08;0.20;0.08" dur="6s" repeatCount="indefinite"/></text>
      <text x="1042" y="52">ERP<tspan x="1042" dy="26">API</tspan><tspan x="1042" dy="26">QA_</tspan><tspan x="1042" dy="26">BOT</tspan><tspan x="1042" dy="26">SQL</tspan><tspan x="1042" dy="26">IA_</tspan><tspan x="1042" dy="26">OPS</tspan><animate attributeName="opacity" values="0.20;0.08;0.20" dur="5.5s" repeatCount="indefinite"/></text>
      <text x="88" y="765">matrix.profile.load<tspan x="88" dy="26">automation.pipeline.sync</tspan><tspan x="88" dy="26">quality.gate.pass</tspan></text>
      <text x="945" y="640">10110<tspan x="945" dy="24">01001</tspan><tspan x="945" dy="24">11100</tspan><tspan x="945" dy="24">00101</tspan><tspan x="945" dy="24">11010</tspan></text>
    </g>

    <g opacity="0.24">
      <path d="M60 100H1140" stroke="url(#accentLine)" stroke-width="1"/>
      <path d="M60 390H1140" stroke="url(#accentLine)" stroke-width="1"/>
      <path d="M60 615H1140" stroke="url(#accentLine)" stroke-width="1"/>
      <path d="M60 778H1140" stroke="url(#accentLine)" stroke-width="1"/>
      <path d="M60 975H1140" stroke="url(#accentLine)" stroke-width="1"/>
    </g>

    <g font-family="JetBrains Mono, Consolas, Monaco, Courier New, monospace">
      <circle cx="76" cy="62" r="5" fill="#39FF14" fill-opacity="0.85"/>
      <circle cx="98" cy="62" r="5" fill="#00FF88" fill-opacity="0.58"/>
      <circle cx="120" cy="62" r="5" fill="#4D6B55" fill-opacity="0.70"/>
      <text x="150" y="68" fill="#4D6B55" font-size="14">secure terminal / profile interface</text>

      <text x="70" y="150" fill="#8FBF9A" font-size="19">// arthur_medeiros.profile</text>
      <text x="70" y="223" fill="#E8FFE8" font-size="66" font-weight="700" filter="url(#softGlow)">Arthur Medeiros<tspan fill="#39FF14">_</tspan></text>
      <rect x="700" y="173" width="16" height="56" rx="3" fill="#39FF14" opacity="0.70">
        <animate attributeName="opacity" values="0.15;0.9;0.15" dur="1.15s" repeatCount="indefinite"/>
      </rect>
      <text x="74" y="268" fill="#00FF88" font-size="27" font-weight="600">Systems • QA • Automations • AI</text>
      <text x="74" y="316" fill="#E8FFE8" font-size="18">Estudante de ADS focado em QA, automações, integrações ERP/API</text>
      <text x="74" y="346" fill="#E8FFE8" font-size="18">e desenvolvimento assistido por IA.</text>
      <text x="74" y="376" fill="#8FBF9A" font-size="18">Transformo processos operacionais em soluções organizadas, simples e eficientes.</text>
    </g>

    <g font-family="JetBrains Mono, Consolas, Monaco, Courier New, monospace" font-size="15" font-weight="600">
      <rect x="70" y="420" width="138" height="34" rx="10" fill="#0A1510" stroke="#39FF14" stroke-opacity="0.30"/>
      <text x="88" y="442" fill="#E8FFE8">São Paulo, BR</text>
      <rect x="224" y="420" width="205" height="34" rx="10" fill="#0A1510" stroke="#39FF14" stroke-opacity="0.30"/>
      <text x="242" y="442" fill="#E8FFE8">Open to Collaboration</text>
      <rect x="445" y="420" width="190" height="34" rx="10" fill="#0A1510" stroke="#39FF14" stroke-opacity="0.30"/>
      <text x="463" y="442" fill="#E8FFE8">GitHub: arthur-abap</text>
    </g>

    <g clip-path="url(#avatarClip)">
      <circle cx="970" cy="215" r="116" fill="#0A1510"/>
      <rect x="854" y="99" width="232" height="232" fill="url(#grid)"/>
      <g opacity="0.28" font-family="JetBrains Mono, Consolas, Monaco, Courier New, monospace" font-size="14" fill="#39FF14">
        <text x="886" y="124">0101 RUN QA<tspan x="886" dy="22">API ERP IA</tspan><tspan x="886" dy="22">NODE SQL</tspan><tspan x="886" dy="22">AUTO TEST</tspan><tspan x="886" dy="22">BUILD FIX</tspan><tspan x="886" dy="22">DATA FLOW</tspan></text>
      </g>
      <rect x="914" y="181" width="112" height="72" rx="12" fill="#030B07" stroke="#39FF14" stroke-opacity="0.75" stroke-width="2"/>
      <path d="M938 272H1002" stroke="#39FF14" stroke-width="4" stroke-linecap="round" opacity="0.8"/>
      <path d="M958 253V272M982 253V272" stroke="#39FF14" stroke-width="3" stroke-linecap="round" opacity="0.75"/>
      <text x="936" y="226" fill="#39FF14" font-family="JetBrains Mono, Consolas, Monaco, Courier New, monospace" font-size="35" font-weight="700">&gt;_</text>
    </g>
    <circle cx="970" cy="215" r="119" fill="none" stroke="#39FF14" stroke-opacity="0.72" stroke-width="2" filter="url(#softGlow)"/>
    <circle cx="970" cy="215" r="136" fill="none" stroke="#00FF88" stroke-opacity="0.18" stroke-width="1"/>
    <path d="M826 215H866M1074 215H1114M970 66V106M970 324V364" stroke="#39FF14" stroke-opacity="0.34" stroke-width="2" stroke-linecap="round"/>

    <g font-family="JetBrains Mono, Consolas, Monaco, Courier New, monospace">
      <text x="70" y="530" fill="#39FF14" font-size="24" font-weight="700">&gt; perfil técnico</text>
      <g filter="url(#cardGlow)">
        <rect x="70" y="560" width="255" height="124" rx="16" fill="#0A1510" stroke="#39FF14" stroke-opacity="0.24"/>
        <text x="94" y="594" fill="#39FF14" font-size="17" font-weight="700">01 foco atual</text>
        <text x="94" y="626" fill="#E8FFE8" font-size="15">QA, automações de</text>
        <text x="94" y="650" fill="#8FBF9A" font-size="15">processos, ERP/API e IA.</text>

        <rect x="345" y="560" width="255" height="124" rx="16" fill="#0A1510" stroke="#39FF14" stroke-opacity="0.24"/>
        <text x="369" y="594" fill="#39FF14" font-size="17" font-weight="700">02 evolução</text>
        <text x="369" y="626" fill="#E8FFE8" font-size="15">React, Node.js, TS,</text>
        <text x="369" y="650" fill="#8FBF9A" font-size="15">Apps Script, SQL e APIs.</text>

        <rect x="620" y="560" width="255" height="124" rx="16" fill="#0A1510" stroke="#39FF14" stroke-opacity="0.24"/>
        <text x="644" y="594" fill="#39FF14" font-size="17" font-weight="700">03 interesses</text>
        <text x="644" y="626" fill="#E8FFE8" font-size="15">Sistemas internos,</text>
        <text x="644" y="650" fill="#8FBF9A" font-size="15">dashboards e agentes IA.</text>

        <rect x="895" y="560" width="235" height="124" rx="16" fill="#0A1510" stroke="#39FF14" stroke-opacity="0.24"/>
        <text x="919" y="594" fill="#39FF14" font-size="17" font-weight="700">04 objetivo</text>
        <text x="919" y="626" fill="#E8FFE8" font-size="15">Soluções úteis,</text>
        <text x="919" y="650" fill="#8FBF9A" font-size="15">organizadas e reais.</text>
      </g>
    </g>

    <g font-family="JetBrains Mono, Consolas, Monaco, Courier New, monospace">
      <text x="70" y="750" fill="#39FF14" font-size="24" font-weight="700">&gt; stack</text>
      <g font-size="15" font-weight="600">
        <rect x="70" y="778" width="90" height="34" rx="10" fill="#0A1510" stroke="#39FF14" stroke-opacity="0.28"/><text x="94" y="800" fill="#E8FFE8">React</text>
        <rect x="174" y="778" width="96" height="34" rx="10" fill="#0A1510" stroke="#39FF14" stroke-opacity="0.28"/><text x="195" y="800" fill="#E8FFE8">Next.js</text>
        <rect x="284" y="778" width="126" height="34" rx="10" fill="#0A1510" stroke="#39FF14" stroke-opacity="0.28"/><text x="305" y="800" fill="#E8FFE8">TypeScript</text>
        <rect x="424" y="778" width="96" height="34" rx="10" fill="#0A1510" stroke="#39FF14" stroke-opacity="0.28"/><text x="447" y="800" fill="#E8FFE8">Node.js</text>
        <rect x="534" y="778" width="92" height="34" rx="10" fill="#0A1510" stroke="#39FF14" stroke-opacity="0.28"/><text x="558" y="800" fill="#E8FFE8">Python</text>
        <rect x="640" y="778" width="66" height="34" rx="10" fill="#0A1510" stroke="#39FF14" stroke-opacity="0.28"/><text x="663" y="800" fill="#E8FFE8">SQL</text>
        <rect x="720" y="778" width="104" height="34" rx="10" fill="#0A1510" stroke="#39FF14" stroke-opacity="0.28"/><text x="741" y="800" fill="#E8FFE8">Omie API</text>
        <rect x="838" y="778" width="130" height="34" rx="10" fill="#0A1510" stroke="#39FF14" stroke-opacity="0.28"/><text x="858" y="800" fill="#E8FFE8">Apps Script</text>
        <rect x="982" y="778" width="58" height="34" rx="10" fill="#0A1510" stroke="#39FF14" stroke-opacity="0.28"/><text x="1004" y="800" fill="#E8FFE8">IA</text>
        <rect x="1054" y="778" width="96" height="34" rx="10" fill="#0A1510" stroke="#39FF14" stroke-opacity="0.28"/><text x="1075" y="800" fill="#E8FFE8">SAP ABAP</text>
      </g>
    </g>

    <g font-family="JetBrains Mono, Consolas, Monaco, Courier New, monospace">
      <text x="70" y="868" fill="#39FF14" font-size="24" font-weight="700">&gt; projetos</text>
      <g filter="url(#cardGlow)">
        <rect x="70" y="898" width="520" height="92" rx="16" fill="#0A1510" stroke="#39FF14" stroke-opacity="0.24"/>
        <text x="94" y="924" fill="#39FF14" font-size="17" font-weight="700">Oráculo — Central de Demandas</text>
        <text x="94" y="948" fill="#E8FFE8" font-size="14">Demandas, prazos, Kanban e histórico operacional.</text>
        <text x="94" y="974" fill="#8FBF9A" font-size="13">Next.js  TypeScript  Prisma</text>
        <text x="430" y="974" fill="#00FF88" font-size="13">Ver projeto →</text>

        <rect x="610" y="898" width="520" height="92" rx="16" fill="#0A1510" stroke="#39FF14" stroke-opacity="0.24"/>
        <text x="634" y="924" fill="#39FF14" font-size="17" font-weight="700">VFP Omie Automation</text>
        <text x="634" y="948" fill="#E8FFE8" font-size="14">Integrações ERP, planilhas e rotinas operacionais.</text>
        <text x="634" y="974" fill="#8FBF9A" font-size="13">Apps Script  APIs  Omie</text>
        <text x="970" y="974" fill="#00FF88" font-size="13">Ver projeto →</text>

        <rect x="70" y="1010" width="520" height="92" rx="16" fill="#0A1510" stroke="#39FF14" stroke-opacity="0.24"/>
        <text x="94" y="1036" fill="#39FF14" font-size="17" font-weight="700">Forge Gym MVP</text>
        <text x="94" y="1060" fill="#E8FFE8" font-size="14">Treinos, histórico e dashboards de evolução.</text>
        <text x="94" y="1086" fill="#8FBF9A" font-size="13">Next.js  Supabase  Tailwind</text>
        <text x="430" y="1086" fill="#00FF88" font-size="13">Ver projeto →</text>

        <rect x="610" y="1010" width="520" height="92" rx="16" fill="#0A1510" stroke="#39FF14" stroke-opacity="0.24"/>
        <text x="634" y="1036" fill="#39FF14" font-size="17" font-weight="700">Projeto IA Agentes</text>
        <text x="634" y="1060" fill="#E8FFE8" font-size="14">Agentes locais, automação e IA aplicada ao dev.</text>
        <text x="634" y="1086" fill="#8FBF9A" font-size="13">Python  Ollama  Claude</text>
        <text x="970" y="1086" fill="#00FF88" font-size="13">Ver projeto →</text>
      </g>
    </g>
  </g>

  <g font-family="JetBrains Mono, Consolas, Monaco, Courier New, monospace">
    <rect x="48" y="1098" width="1104" height="52" rx="14" fill="#07110D" stroke="#39FF14" stroke-opacity="0.18"/>
    <text x="74" y="1122" fill="#39FF14" font-size="16" font-weight="700">&gt; Código. Automação. Integração. Inteligência. █</text>
    <text x="560" y="1140" fill="#8FBF9A" font-size="12">LinkedIn → Arthur Medeiros</text>
    <text x="744" y="1140" fill="#8FBF9A" font-size="12">GitHub → arthur-abap</text>
    <text x="910" y="1140" fill="#8FBF9A" font-size="12">Gmail → arthurmedeiros08@gmail.com</text>
  </g>

  <rect x="20.5" y="20.5" width="1159" height="1139" rx="29.5" stroke="#39FF14" stroke-opacity="0.22"/>
</svg>
